<svg xmlns="http://www.w3.org/2000/svg" id="Layer_1" data-name="Layer 1" viewBox="0 0 64 64"><defs><style>.cls-1,.cls-3{fill:none;stroke-linecap:round;stroke-linejoin:round;stroke-width:2px}.cls-1{stroke:#13aa52}.cls-2{fill:#13aa52}.cls-3{stroke:#6e60f9}</style></defs><path d="M17,36.26H5.16A2.13,2.13,0,0,1,3,34.12v-19" class="cls-1"/><path d="M5.16,2.6H20.53a2.13,2.13,0,0,1,2.13,2.13v17" class="cls-1"/><path d="M3,15.08V4.73A2.13,2.13,0,0,1,5.16,2.6" class="cls-1"/><path d="M14.49,5.33H11.2A3.58,3.58,0,0,1,8.43,4.09l-.6-.74h10l-.6.74A3.58,3.58,0,0,1,14.49,5.33Z" class="cls-2"/><path d="M46.72,27.74H58.84A2.13,2.13,0,0,1,61,29.88V59.27a2.13,2.13,0,0,1-2.13,2.13H56.41" class="cls-1"/><path d="M56.41,61.4H43.47a2.13,2.13,0,0,1-2.13-2.13V43.39" class="cls-1"/><line x1="49.8" x2="53.23" y1="31.3" y2="31.3" class="cls-1"/><path d="M37.68,14.75S32.36,25.92,22.28,28.1c18.53-1.91,18.67-2,18.67-2L23,37.36l18-1.91a60.15,60.15,0,0,0-14,12.67" class="cls-3"/></svg>