<svg xmlns="http://www.w3.org/2000/svg" id="Layer_1" data-name="Layer 1" viewBox="0 0 64 64"><defs><style>.cls-1,.cls-2{fill:none;stroke-linecap:round;stroke-linejoin:round;stroke-width:2px}.cls-1{stroke:#13aa52}.cls-2{stroke:#6e60f9}</style></defs><line id="Path-Copy-40" x1="3.9" x2="3.9" y1="31.52" y2="32.49" class="cls-1"/><line id="Path-Copy-41" x1="60.1" x2="60.1" y1="31.52" y2="32.49" class="cls-1"/><line id="Path-Copy-42" x1="16.87" x2="21.19" y1="21.87" y2="21.87" class="cls-1"/><line id="Path-Copy-43" x1="29.84" x2="34.16" y1="21.87" y2="21.87" class="cls-1"/><line id="Path-Copy-44" x1="42.81" x2="47.13" y1="21.87" y2="21.87" class="cls-1"/><line id="Path-Copy-45" x1="16.87" x2="21.19" y1="42.14" y2="42.14" class="cls-1"/><line id="Path-Copy-46" x1="29.84" x2="34.16" y1="42.14" y2="42.14" class="cls-1"/><line id="Path-Copy-47" x1="42.81" x2="47.13" y1="42.14" y2="42.14" class="cls-1"/><line id="Path-Copy-40-2" x1="3.9" x2="3.9" y1="51.79" y2="52.76" class="cls-1" data-name="Path-Copy-40"/><line id="Path-Copy-41-2" x1="60.1" x2="60.1" y1="51.79" y2="52.76" class="cls-1" data-name="Path-Copy-41"/><line id="Path-Copy-45-2" x1="16.87" x2="21.19" y1="62.41" y2="62.41" class="cls-1" data-name="Path-Copy-45"/><line id="Path-Copy-46-2" x1="29.84" x2="34.16" y1="62.41" y2="62.41" class="cls-1" data-name="Path-Copy-46"/><line id="Path-Copy-47-2" x1="42.81" x2="47.13" y1="62.41" y2="62.41" class="cls-1" data-name="Path-Copy-47"/><path id="Path-Copy-37" d="M55.78,21.87a4.33,4.33,0,0,1,4.32,4.34" class="cls-2"/><path id="Path-Copy-4" d="M60.1,58.07a4.33,4.33,0,0,1-4.32,4.34" class="cls-2"/><path id="Path-Copy-37-2" d="M55.78,42.14a4.33,4.33,0,0,1,4.32,4.34" class="cls-2" data-name="Path-Copy-37"/><path id="Path-Copy-38" d="M3.9,46.48a4.33,4.33,0,0,1,4.32-4.34" class="cls-2"/><path id="Path-Copy-39" d="M8.22,62.41A4.33,4.33,0,0,1,3.9,58.07" class="cls-2"/><path id="Path" d="M55.78,1.59A4.33,4.33,0,0,1,60.1,5.93" class="cls-2"/><path id="Path-2" d="M3.9,5.93A4.33,4.33,0,0,1,8.22,1.59" class="cls-2" data-name="Path"/><path id="Path-3" d="M8.22,21.86A4.33,4.33,0,0,1,3.9,17.52" class="cls-2" data-name="Path"/><path id="Path-4" d="M60.1,17.52a4.33,4.33,0,0,1-4.32,4.34" class="cls-2" data-name="Path"/><path id="Path-Copy-4-2" d="M60.1,37.8a4.33,4.33,0,0,1-4.32,4.34" class="cls-2" data-name="Path-Copy-4"/><path id="Path-Copy-38-2" d="M3.9,26.21a4.33,4.33,0,0,1,4.32-4.34" class="cls-2" data-name="Path-Copy-38"/><path id="Path-Copy-39-2" d="M8.22,42.14A4.33,4.33,0,0,1,3.9,37.8" class="cls-2" data-name="Path-Copy-39"/><line id="Path-5" x1="3.9" x2="3.9" y1="11.24" y2="12.21" class="cls-1" data-name="Path"/><line id="Path-6" x1="60.1" x2="60.1" y1="11.24" y2="12.21" class="cls-1" data-name="Path"/><line id="Path-7" x1="16.87" x2="21.19" y1="1.59" y2="1.59" class="cls-1" data-name="Path"/><line id="Path-8" x1="29.84" x2="34.16" y1="1.59" y2="1.59" class="cls-1" data-name="Path"/><line id="Path-9" x1="42.81" x2="47.13" y1="1.59" y2="1.59" class="cls-1" data-name="Path"/></svg>